<?xml version="1.0" encoding="UTF-8"?>
<svg id="Layer_2" data-name="Layer 2" xmlns="http://www.w3.org/2000/svg" xmlns:xlink="http://www.w3.org/1999/xlink" viewBox="0 0 357.31 66.97">
  <defs>
    <style>
      .cls-1, .cls-2 {
        fill: #38b6ff;
      }

      .cls-3 {
        fill: #737373;
      }

      .cls-4 {
        clip-path: url(#clippath);
      }

      .cls-5 {
        fill: none;
      }

      .cls-2 {
        fill-rule: evenodd;
      }
    </style>
    <clipPath id="clippath">
      <rect class="cls-5" width="109.09" height="66.97"/>
    </clipPath>
  </defs>
  <g id="Layer_1-2" data-name="Layer 1">
    <g>
      <g class="cls-4">
        <path class="cls-2" d="m54.81,3.42c-4.21,2.72-13.91,8.9-14.06,8.56-.14-.34,4.8-5.55,7.31-8.15,2.01-.16,4.31-.3,6.75-.41Zm-30.17,15.61c-.76.03-1.53.06-2.29.11,1.79-1.88,12.79-13.29,18.15-14.45.5-.11,1.22-.22,2.13-.33-4.45,3.59-15.49,12.52-17.98,14.68Zm-17.82,13.05c-.3.55-.51,1.34-.48,2.48.02,1.19.32,2.53.67,3.71-1.62-1.92-2.64-4.36-3.09-5.59,0-.06.01-.11.02-.17.44-.19,1.3-.41,2.88-.43Zm1.8.2c.13,0,.25-.05.35-.12,1.26.11,2.81.31,4.7.66,3.64.67,7.03,2.16,9.8,3.79,3.97,2.33,6.62,4.67,6.67,5.23-.16.1-4.13-.03-8.37-.2-4.69-.19-9.63-.6-10.8-.78-.02,0-.05-.01-.11-.02-.6-.13-1.16-.36-1.68-.66-.51-1.25-1.38-3.69-1.42-5.65-.05-2.21.85-2.25.85-2.25Zm97.83,1.79s-5,1.29-9.59,2.96c-4.73,1.71-9.05,3.8-9.44,4.46-.76,1.3,1.21,2.12,1.88,2.16s15.03.32,15.03-.13-1.24-.98-2.31-.92c-1.08.06-13.25-.13-13.07-.76.19-.63,9.52-4.76,12.63-5.77,3.11-1.01,4.88-2,4.88-2ZM13.81,46.6c-.98,0-1.86.4-2.5,1.04-.64.64-1.04,1.53-1.04,2.51s.4,1.86,1.04,2.5c.64.64,1.53,1.04,2.5,1.04s1.87-.4,2.5-1.04,1.04-1.52,1.04-2.5-.4-1.87-1.04-2.51-1.53-1.04-2.5-1.04Zm10.75-5.73c.4.02.73-.3.75-.69.02-.4-.29-.73-.68-.75-.04,0-12-.53-13.04-1.26-.9-.64-.96-3.92-.97-3.93,0-.39-.33-.71-.73-.7-.4.01-.71.33-.7.73,0,.01.07,4.01,1.57,5.07,1.38.98,13.77,1.53,13.8,1.53Zm-11.05,8.21c.32-.32.77-.52,1.27-.52s.94.2,1.27.52c.33.33.52.78.52,1.27s-.2.95-.52,1.27-.78.52-1.27.52-.95-.2-1.27-.52c-.33-.32-.53-.77-.53-1.27s.2-.95.53-1.27Zm77.55,1.73s-5.2-5.96-7.8-6.47c-2.61-.51-45.42-1.65-51.51.82-6.09,2.47-14.97,12.31-14.53,14.34.08.36.17.66.27.92l-14.91-.1c-.3,0-.7-1-.96-2.01v-.03c-.1-.34-.15-.67-.18-.97-.02-.18-.02-.35-.01-.49l5.71-.05c.53,0,8.25-.43,8.25-.96s-7.72-.95-8.25-.95l-3.13.02c-.21-2.64-.8-10.96-.42-18.32,1.41,2.55,3.66,5.46,6.88,6.15.03,0,.1.02.21.03,1.22.2,6.26.61,11.02.81,5.15.21,10.05,0,10.33-1.32.01-.06.02-.12.02-.18.01-.25-.08-.5-.25-.68-.8-1.46-3.51-4.16-7.35-6.42-2.94-1.73-6.55-3.31-10.43-4.03-5.06-.94-8.06-.77-9.8-.38.51-2.99,1.33-5.32,2.6-6.28,4.5-3.37,17.62-4.56,24.17-3.27.49.15,0-.06,1.41.49,1.42.56,10.62,16.79,11.57,16.79s-3.81-9.7-4.32-11.35c-.31-.99-.79-2.41-.67-3.58.32-.1.44-.23.44-.23,0,0,.06-.25,3.49-.83,3.42-.57,34.31-.5,36.47.39s1.78,2.6,1.27,4.25-5.26,11.35-4.31,11.35,8.24-13.95,10.65-14.91c2.41-.95,15.89-2.72,15.89-2.72,0,0-16.59.44-18.07.28-1.5-.16-2.48-2.03-3.56-2.09-.6-.04-14.63,0-26.9.03,2.92-3.45,11.91-14.09,12.6-15.16.14-.23.22-.44.26-.63,10.27-.02,20.28.62,23.71,2.66,7.32,4.35,13.32,10.53,13.32,10.53,0,0-6.54-10.34-14.65-13.19C81.48.24,44.69.05,35.75,2.78c-8.95,2.73-17.25,14.91-17.25,14.91l-.18.21c-.71-1.15-1.99-2.89-3.55-3.65-2.41-1.17-13.86-1.43-14.43-.06-.57,1.37,2.89,5.61,5.99,5.71s8.41-.75,9.92-.21c-.21.02-.42.05-.63.08-8.25,1.17-11.91,3.25-12.74,6.29-.3,1.14-1.27,4.56-1.57,9.68-.42,7.12-.32,16.25-.28,19.18-.82.01-1.28.54-1.45,1.38-.06.35-.07.75-.04,1.19.03.4.11.83.22,1.26v.05c.45,1.71,1.51,3.43,2.82,3.44h.06c.1,1.32.33,3.56.73,3.86.1.08.66.14,1.53.18h0c2.4.13,7.16.15,10.77.14,25.8.3,89.19.97,91.23.31,1.96-.63-57.07-1.49-84.61-1.85,0-.06,0-.12,0-.17-.08-.58.04-2.01.15-2.96,11.31.05,45.72.21,82.51.32h0c2.22.17,4.59.25,4.61-.15.03-.42-2.5-.89-4.76-1.45-42.46-.44-80.85-.95-81.22-1.54-.19-.31.19-1.04.92-1.99,12.51-.2,57.84-1.18,59.88-2.06,0,0-43.27-.83-57.18-.92.92-.92,1.93-1.85,2.93-2.72,13.58-.05,52.97-1.1,54.18-1.62,1.19-.52-38.1-.15-51.93-.21,1.19-.9,2.22-1.56,2.87-1.77,2.79-.89,47.38-2.22,49.03-1.59s5.9,5.26,6.35,5.01l.44-.25"/>
      </g>
      <path class="cls-1" d="m132.69,11.37h-5.58l-9.69,23.79h5.31l1.73-4.42h10.88l1.73,4.42h5.3l-9.69-23.79Zm-6.63,15.09l3.3-8.46c.21-.48.34-.95.54-1.77.2.82.34,1.29.51,1.77l3.33,8.46h-7.68Z"/>
      <path class="cls-1" d="m157.03,35.64c5.27,0,10.44-2.38,10.44-9.42v-14.85h-5.1v14.58c0,3.74-2.18,5.06-5.34,5.06s-5.34-1.33-5.34-5.06v-14.58h-5.1v14.85c0,7.04,5.17,9.42,10.44,9.42Z"/>
      <path class="cls-1" d="m179.33,35.16h5.1V15.99h7.28v-4.62h-19.68v4.62h7.3v19.17Z"/>
      <path class="cls-1" d="m207.82,35.64c8.43,0,12.65-5.91,12.65-12.37s-4.22-12.37-12.65-12.37-12.64,5.91-12.64,12.37,4.18,12.37,12.64,12.37Zm0-4.72c-4.93,0-7.41-3.47-7.41-7.65s2.48-7.65,7.41-7.65,7.41,3.47,7.41,7.65-2.52,7.65-7.41,7.65Z"/>
      <path class="cls-1" d="m237.8,35.64c2.65,0,5.37-.58,7.75-1.6v-11.83h-4.89v8.53c-.68.27-1.6.41-2.58.41-3.5,0-8.12-1.56-8.12-7.88,0-5.54,4.14-7.82,8.39-7.82,2.42,0,4.83.65,6.63,1.87v-4.89c-2.21-.99-4.76-1.53-7.3-1.53-6.53,0-12.95,3.74-12.95,12.37s6.39,12.37,13.09,12.37Z"/>
      <path class="cls-1" d="m251.63,35.16h16.79v-4.62h-11.7V11.37h-5.1v23.79Z"/>
      <path class="cls-1" d="m273.21,35.16h5.1V11.37h-5.1v23.79Z"/>
      <path class="cls-1" d="m285.21,35.16h5.1v-14.65l6.29,9.55h2.96l6.29-9.52v14.62h5.09V11.37h-4.72l-8.12,12.37-8.16-12.37h-4.72v23.79Z"/>
      <path class="cls-1" d="m325.74,35.64c4.99,0,9.28-1.66,9.28-7,0-8.47-12.98-6.93-12.98-11.05,0-1.46,1.26-2.18,3.87-2.21,2.65-.04,5.3.71,7.31,2.14v-4.79c-2.01-1.16-4.9-1.83-7.72-1.83-4.69,0-8.7,2.17-8.7,6.76,0,8.43,12.98,6.76,12.98,11.21,0,1.7-1.66,2.28-4.42,2.28s-5.71-.71-8.43-2.52v4.86c2.45,1.36,5.51,2.14,8.8,2.14Z"/>
      <path class="cls-1" d="m340.35,35.16h16.96v-4.49h-11.86v-5.27h10.64v-4.49h-10.64v-5.06h11.66v-4.49h-16.76v23.79Z"/>
      <path class="cls-3" d="m133.98,55.37h4.81c1.96,0,4.42-.59,4.42-3.13,0-1.65-1.06-2.47-2.16-2.79,1.01-.34,1.71-1.15,1.71-2.45,0-1.92-1.49-2.83-3.88-2.83h-4.9v11.2Zm2.4-6.69v-2.54h2.27c1.07,0,1.7.4,1.7,1.28s-.64,1.28-1.57,1.28l-2.4-.02Zm0,4.72v-2.86h2.52c.96,0,1.89.25,1.89,1.44s-.95,1.43-2.02,1.43h-2.38Z"/>
      <path class="cls-3" d="m156.4,55.59c2.48,0,4.91-1.12,4.91-4.43v-6.99h-2.4v6.86c0,1.77-1.03,2.39-2.52,2.39s-2.51-.62-2.51-2.39v-6.86h-2.4v6.99c0,3.31,2.43,4.43,4.91,4.43Z"/>
      <path class="cls-3" d="m173.47,55.37h2.38v-3.97l4.38-7.23h-2.72l-2.85,5-2.86-5h-2.72l4.39,7.23v3.97Z"/>
      <path class="cls-3" d="m187.92,56.97h2.26v-14.56h-2.26v14.56Z"/>
      <path class="cls-3" d="m199.01,55.37h2.4v-3.92h1.76l3.03,3.92h2.76l-3.32-4.22c1.34-.43,2.43-1.41,2.43-3.33,0-2.83-2.27-3.65-4.45-3.65h-4.61v11.2Zm2.4-5.92v-3.17h2.3c1.03,0,1.89.43,1.89,1.59s-.87,1.59-1.89,1.59h-2.3Z"/>
      <path class="cls-3" d="m216.94,55.37h7.99v-2.11h-5.59v-2.48h5.01v-2.11h-5.01v-2.38h5.49v-2.11h-7.89v11.2Z"/>
      <path class="cls-3" d="m233.47,55.37h2.4v-5.76c0-.51,0-1.07-.03-1.54l5.18,7.3h2.27v-11.2h-2.4v5.74c0,.52,0,1.1.03,1.55l-5.18-7.29h-2.27v11.2Z"/>
      <path class="cls-3" d="m254.78,55.37h2.4v-9.03h3.42v-2.17h-9.26v2.17h3.44v9.03Z"/>
      <path class="cls-3" d="m268.45,56.97h2.26v-14.56h-2.26v14.56Z"/>
      <path class="cls-3" d="m283.26,55.59c2.35,0,4.37-.78,4.37-3.29,0-3.98-6.11-3.27-6.11-5.2,0-.69.59-1.03,1.82-1.04,1.25-.02,2.49.33,3.44,1.01v-2.26c-.95-.54-2.3-.87-3.64-.87-2.2,0-4.1,1.03-4.1,3.19,0,3.97,6.11,3.18,6.11,5.28,0,.8-.79,1.07-2.08,1.07s-2.68-.34-3.97-1.18v2.29c1.15.64,2.59,1,4.15,1Z"/>
      <path class="cls-3" d="m295.93,55.37h7.99v-2.11h-5.59v-2.48h5.01v-2.11h-5.01v-2.38h5.49v-2.11h-7.89v11.2Z"/>
      <path class="cls-3" d="m312.46,55.37h7.91v-2.18h-5.51v-9.02h-2.4v11.2Z"/>
      <path class="cls-3" d="m328.41,55.37h7.91v-2.18h-5.51v-9.02h-2.4v11.2Z"/>
    </g>
  </g>
</svg>